<svg width="76" height="36" viewBox="0 0 76 36" fill="none" xmlns="http://www.w3.org/2000/svg">
<g clip-path="url(#clip0_20_2)">
<path d="M2.9602 27.2045C2.32952 27.2045 1.78832 26.9787 1.33662 26.527C0.88491 26.0753 0.659058 25.5341 0.659058 24.9034C0.659058 24.2727 0.88491 23.7315 1.33662 23.2798C1.78832 22.8281 2.32952 22.6023 2.9602 22.6023C3.59088 22.6023 4.13207 22.8281 4.58378 23.2798C5.03548 23.7315 5.26133 24.2727 5.26133 24.9034C5.26133 25.321 5.1548 25.7045 4.94173 26.054C4.73719 26.4034 4.4602 26.6847 4.11077 26.8977C3.76986 27.1023 3.38633 27.2045 2.9602 27.2045Z" fill="#0560AB"/>
<path d="M8.92212 1.33199V0.359985H14.6462V24.084C14.6462 24.924 14.6822 25.416 14.7542 25.56C14.8262 25.704 15.0542 25.8 15.4382 25.848L17.4182 26.064V27H8.92212V26.064L10.9022 25.848C11.2862 25.8 11.5142 25.704 11.5862 25.56C11.6582 25.416 11.6942 24.924 11.6942 24.084V3.27599C11.6942 2.43599 11.6582 1.94399 11.5862 1.79999C11.5142 1.65599 11.2862 1.55999 10.9022 1.51199L8.92212 1.33199ZM36.281 17.712V18.432C36.281 21.144 35.597 23.316 34.229 24.948C32.885 26.556 30.965 27.36 28.469 27.36C25.997 27.36 24.077 26.556 22.709 24.948C21.365 23.316 20.693 21.144 20.693 18.432V17.712C20.693 15.024 21.365 12.876 22.709 11.268C24.053 9.63599 25.973 8.81999 28.469 8.81999C30.965 8.81999 32.885 9.63599 34.229 11.268C35.597 12.876 36.281 15.024 36.281 17.712ZM33.041 16.992C33.041 14.496 32.645 12.708 31.853 11.628C31.085 10.524 29.957 9.97199 28.469 9.97199C27.005 9.97199 25.877 10.524 25.085 11.628C24.317 12.708 23.933 14.496 23.933 16.992V19.152C23.933 21.672 24.317 23.484 25.085 24.588C25.877 25.668 27.005 26.208 28.469 26.208C29.957 26.208 31.085 25.668 31.853 24.588C32.645 23.484 33.041 21.672 33.041 19.152V16.992ZM56.5361 29.088C56.5361 31.008 55.8281 32.472 54.4121 33.48C53.0201 34.512 51.0761 35.028 48.5801 35.028C45.8441 35.028 43.8401 34.548 42.5681 33.588C41.2961 32.652 40.6361 31.464 40.5881 30.024L43.2521 29.484C43.1561 30.804 43.5041 31.86 44.2961 32.652C45.1121 33.468 46.5401 33.876 48.5801 33.876C50.4041 33.876 51.8681 33.54 52.9721 32.868C54.1001 32.196 54.6641 31.212 54.6641 29.916C54.6641 28.956 54.3401 28.236 53.6921 27.756C53.0441 27.276 51.9761 27.036 50.4881 27.036H46.2041C44.5961 27.036 43.4681 26.7 42.8201 26.028C42.1721 25.332 41.8481 24.564 41.8481 23.724C41.8481 23.028 42.0161 22.38 42.3521 21.78C42.7121 21.156 43.2761 20.544 44.0441 19.944C43.0841 19.488 42.3041 18.828 41.7041 17.964C41.1041 17.076 40.8041 16.008 40.8041 14.76C40.8041 13.44 41.1041 12.348 41.7041 11.484C42.3281 10.596 43.1441 9.93599 44.1521 9.50399C45.1841 9.04799 46.3241 8.81999 47.5721 8.81999H48.1841C49.5041 8.81999 50.6801 9.05999 51.7121 9.53999L56.9321 7.73998L57.3281 10.44H53.1161C53.6681 10.92 54.1001 11.52 54.4121 12.24C54.7481 12.96 54.9161 13.8 54.9161 14.76C54.9161 16.032 54.6041 17.112 53.9801 18C53.3801 18.888 52.5761 19.56 51.5681 20.016C50.5601 20.448 49.4321 20.664 48.1841 20.664H47.5721C47.1641 20.664 46.7681 20.64 46.3841 20.592C46.0001 20.544 45.6281 20.472 45.2681 20.376C44.7401 20.736 44.3561 21.108 44.1161 21.492C43.9001 21.876 43.7921 22.272 43.7921 22.68C43.7921 23.16 43.9601 23.544 44.2961 23.832C44.6561 24.12 45.2201 24.264 45.9881 24.264H50.6681C52.5641 24.264 54.0161 24.672 55.0241 25.488C56.0321 26.304 56.5361 27.504 56.5361 29.088ZM48.1841 19.512C48.8321 19.512 49.4201 19.368 49.9481 19.08C50.5001 18.792 50.9441 18.312 51.2801 17.64C51.6161 16.944 51.7841 15.984 51.7841 14.76C51.7841 13.512 51.6161 12.552 51.2801 11.88C50.9441 11.184 50.5001 10.692 49.9481 10.404C49.4201 10.116 48.8321 9.97199 48.1841 9.97199H47.5721C46.9241 9.97199 46.3241 10.116 45.7721 10.404C45.2201 10.692 44.7761 11.184 44.4401 11.88C44.1041 12.552 43.9361 13.512 43.9361 14.76C43.9361 15.984 44.1041 16.944 44.4401 17.64C44.7761 18.312 45.2201 18.792 45.7721 19.08C46.3241 19.368 46.9241 19.512 47.5721 19.512H48.1841ZM75.7615 17.712V18.432C75.7615 21.144 75.0775 23.316 73.7095 24.948C72.3655 26.556 70.4455 27.36 67.9495 27.36C65.4775 27.36 63.5575 26.556 62.1895 24.948C60.8455 23.316 60.1735 21.144 60.1735 18.432V17.712C60.1735 15.024 60.8455 12.876 62.1895 11.268C63.5335 9.63599 65.4535 8.81999 67.9495 8.81999C70.4455 8.81999 72.3655 9.63599 73.7095 11.268C75.0775 12.876 75.7615 15.024 75.7615 17.712ZM72.5215 16.992C72.5215 14.496 72.1255 12.708 71.3335 11.628C70.5655 10.524 69.4375 9.97199 67.9495 9.97199C66.4855 9.97199 65.3575 10.524 64.5655 11.628C63.7975 12.708 63.4135 14.496 63.4135 16.992V19.152C63.4135 21.672 63.7975 23.484 64.5655 24.588C65.3575 25.668 66.4855 26.208 67.9495 26.208C69.4375 26.208 70.5655 25.668 71.3335 24.588C72.1255 23.484 72.5215 21.672 72.5215 19.152V16.992Z" fill="white"/>
</g>
<defs>
<clipPath id="clip0_20_2">
<rect width="76" height="36" fill="white"/>
</clipPath>
</defs>
</svg>
