<svg width="76" height="36" viewBox="0 0 76 36" fill="none" xmlns="http://www.w3.org/2000/svg">
<path d="M2.96023 27.2045C2.32955 27.2045 1.78835 26.9787 1.33665 26.527C0.884943 26.0753 0.659091 25.5341 0.659091 24.9034C0.659091 24.2727 0.884943 23.7315 1.33665 23.2798C1.78835 22.8281 2.32955 22.6023 2.96023 22.6023C3.59091 22.6023 4.1321 22.8281 4.58381 23.2798C5.03551 23.7315 5.26136 24.2727 5.26136 24.9034C5.26136 25.321 5.15483 25.7045 4.94176 26.054C4.73722 26.4034 4.46023 26.6847 4.1108 26.8977C3.76989 27.1023 3.38636 27.2045 2.96023 27.2045Z" fill="#0560AB"/>
<path d="M8.92206 1.332V0.36H14.6461V24.084C14.6461 24.924 14.6821 25.416 14.7541 25.56C14.8261 25.704 15.0541 25.8 15.4381 25.848L17.4181 26.064V27H8.92206V26.064L10.9021 25.848C11.2861 25.8 11.5141 25.704 11.5861 25.56C11.6581 25.416 11.6941 24.924 11.6941 24.084V3.276C11.6941 2.436 11.6581 1.944 11.5861 1.8C11.5141 1.656 11.2861 1.56 10.9021 1.512L8.92206 1.332ZM36.2809 17.712V18.432C36.2809 21.144 35.5969 23.316 34.2289 24.948C32.8849 26.556 30.9649 27.36 28.4689 27.36C25.9969 27.36 24.0769 26.556 22.7089 24.948C21.3649 23.316 20.6929 21.144 20.6929 18.432V17.712C20.6929 15.024 21.3649 12.876 22.7089 11.268C24.0529 9.636 25.9729 8.82 28.4689 8.82C30.9649 8.82 32.8849 9.636 34.2289 11.268C35.5969 12.876 36.2809 15.024 36.2809 17.712ZM33.0409 16.992C33.0409 14.496 32.6449 12.708 31.8529 11.628C31.0849 10.524 29.9569 9.972 28.4689 9.972C27.0049 9.972 25.8769 10.524 25.0849 11.628C24.3169 12.708 23.9329 14.496 23.9329 16.992V19.152C23.9329 21.672 24.3169 23.484 25.0849 24.588C25.8769 25.668 27.0049 26.208 28.4689 26.208C29.9569 26.208 31.0849 25.668 31.8529 24.588C32.6449 23.484 33.0409 21.672 33.0409 19.152V16.992ZM56.536 29.088C56.536 31.008 55.828 32.472 54.412 33.48C53.02 34.512 51.076 35.028 48.58 35.028C45.844 35.028 43.84 34.548 42.568 33.588C41.296 32.652 40.636 31.464 40.588 30.024L43.252 29.484C43.156 30.804 43.504 31.86 44.296 32.652C45.112 33.468 46.54 33.876 48.58 33.876C50.404 33.876 51.868 33.54 52.972 32.868C54.1 32.196 54.664 31.212 54.664 29.916C54.664 28.956 54.34 28.236 53.692 27.756C53.044 27.276 51.976 27.036 50.488 27.036H46.204C44.596 27.036 43.468 26.7 42.82 26.028C42.172 25.332 41.848 24.564 41.848 23.724C41.848 23.028 42.016 22.38 42.352 21.78C42.712 21.156 43.276 20.544 44.044 19.944C43.084 19.488 42.304 18.828 41.704 17.964C41.104 17.076 40.804 16.008 40.804 14.76C40.804 13.44 41.104 12.348 41.704 11.484C42.328 10.596 43.144 9.936 44.152 9.504C45.184 9.048 46.324 8.82 47.572 8.82H48.184C49.504 8.82 50.68 9.06 51.712 9.54L56.932 7.74L57.328 10.44H53.116C53.668 10.92 54.1 11.52 54.412 12.24C54.748 12.96 54.916 13.8 54.916 14.76C54.916 16.032 54.604 17.112 53.98 18C53.38 18.888 52.576 19.56 51.568 20.016C50.56 20.448 49.432 20.664 48.184 20.664H47.572C47.164 20.664 46.768 20.64 46.384 20.592C46 20.544 45.628 20.472 45.268 20.376C44.74 20.736 44.356 21.108 44.116 21.492C43.9 21.876 43.792 22.272 43.792 22.68C43.792 23.16 43.96 23.544 44.296 23.832C44.656 24.12 45.22 24.264 45.988 24.264H50.668C52.564 24.264 54.016 24.672 55.024 25.488C56.032 26.304 56.536 27.504 56.536 29.088ZM48.184 19.512C48.832 19.512 49.42 19.368 49.948 19.08C50.5 18.792 50.944 18.312 51.28 17.64C51.616 16.944 51.784 15.984 51.784 14.76C51.784 13.512 51.616 12.552 51.28 11.88C50.944 11.184 50.5 10.692 49.948 10.404C49.42 10.116 48.832 9.972 48.184 9.972H47.572C46.924 9.972 46.324 10.116 45.772 10.404C45.22 10.692 44.776 11.184 44.44 11.88C44.104 12.552 43.936 13.512 43.936 14.76C43.936 15.984 44.104 16.944 44.44 17.64C44.776 18.312 45.22 18.792 45.772 19.08C46.324 19.368 46.924 19.512 47.572 19.512H48.184ZM75.7614 17.712V18.432C75.7614 21.144 75.0774 23.316 73.7094 24.948C72.3654 26.556 70.4454 27.36 67.9494 27.36C65.4774 27.36 63.5574 26.556 62.1894 24.948C60.8454 23.316 60.1734 21.144 60.1734 18.432V17.712C60.1734 15.024 60.8454 12.876 62.1894 11.268C63.5334 9.636 65.4534 8.82 67.9494 8.82C70.4454 8.82 72.3654 9.636 73.7094 11.268C75.0774 12.876 75.7614 15.024 75.7614 17.712ZM72.5214 16.992C72.5214 14.496 72.1254 12.708 71.3334 11.628C70.5654 10.524 69.4374 9.972 67.9494 9.972C66.4854 9.972 65.3574 10.524 64.5654 11.628C63.7974 12.708 63.4134 14.496 63.4134 16.992V19.152C63.4134 21.672 63.7974 23.484 64.5654 24.588C65.3574 25.668 66.4854 26.208 67.9494 26.208C69.4374 26.208 70.5654 25.668 71.3334 24.588C72.1254 23.484 72.5214 21.672 72.5214 19.152V16.992Z" fill="black"/>
</svg>
